:SAMPLES-PER-SECOND 30
:FULLY-SPECIFIED
:DEGREES
196
root  15.268 35.7624 3.02997 132.024 -79.8116 -137.658
RightUpLeg  -39.0168 -8.22923 -24.1864
RightLeg  48.7487 -5.83608 -7.38998
RightFoot  30.0434 -3.36637 9.4276
RightToes  -5.28226e-011 1.30204e-014 -6.03759e-014
Spine  26.4625 -0.695016 -17.2255
Spine1  -6.92477 -5.85276 15.752
HEad  -17.5015 30.408 -8.96127
LeftShoulder1  1.9798 -3.30525 -22.6693
LeftArm  -15.0885 39.716 -23.1739
LeftForeArm  -39.3298 -52.243 -17.0708
LeftHand  0.212583 6.43831 23.7976
RightShoulder  1.001 0.531002 18.4079
RightArm  -32.1068 -16.849 45.9378
RightForeArm  -22.769 53.475 17.2241
RightHand  -1.09441 -0.898913 -27.7096
LeftUpLeg  -9.31016 10.9452 29.7196
LeftLeg  42.0462 2.06429 2.42382
LeftFoot  -19.8234 -1.94155 -27.264
LeftToes  -2.75829e-010 5.07641e-011 -5.51782e-011
197
root  15.6345 34.8348 2.47316 95.3192 -83.4205 -100.452
RightUpLeg  -34.1175 -9.40694 -26.9079
RightLeg  47.2228 -6.07061 -7.31283
RightFoot  27.2472 -2.25302 7.00129
RightToes  -5.28226e-011 1.30204e-014 -6.03759e-014
Spine  27.3612 0.171066 -7.95391
Spine1  -4.92865 -2.08358 4.56432
HEad  -19.9516 12.8241 -2.52755
LeftShoulder1  1.18386 -1.17057 -18.8577
LeftArm  10 6.51969 -21.5582
LeftForeArm  -46.325 -31.0229 -10.6591
LeftHand  0.196074 6.36995 23.496
RightShoulder  1.66924 2.46477 21.5527
RightArm  -36.0825 -39.1508 43.2097
RightForeArm  -20.5293 63.8899 25.5043
RightHand  -0.592746 -2.53602 -23.9647
LeftUpLeg  -16.5785 6.24386 29.121
LeftLeg  47.5948 0.462164 1.03381
LeftFoot  -20.8444 -2.21992 -27.6987
LeftToes  -2.75829e-010 5.07641e-011 -5.51782e-011
198
root  15.8454 33.7183 1.84683 38.1859 -83.9242 -43.6107
RightUpLeg  -29.4214 -8.58395 -31.8438
RightLeg  47.8051 -2.56547 -3.29179
RightFoot  27.1386 -1.66703 5.30364
RightToes  -5.28226e-011 1.30204e-014 -6.03759e-014
Spine  29.2265 1.16971 2.23683
Spine1  -3.46522 3.02184 -8.88073
HEad  -22.2939 -7.5056 3.08061
LeftShoulder1  0.631941 1.04031 -19.1017
LeftArm  9.00457 -26.1183 -27.9909
LeftForeArm  -40.3323 -9.38948 -13.9411
LeftHand  0.281634 6.73362 24.5177
RightShoulder  2.47315 4.07396 26.7622
RightArm  -32.4669 -52.0456 36.2001
RightForeArm  -29.227 52.8563 17.3493
RightHand  -0.651704 -1.74685 -20.64
LeftUpLeg  -22.2685 0.130495 27.4378
LeftLeg  52.6875 0.498137 1.20575
LeftFoot  -22.236 -2.70217 -29.0944
LeftToes  -2.75829e-010 5.07641e-011 -5.51782e-011
199
root  16.0001 32.4355 1.22254 20.3416 -83.7501 -27.3937
RightUpLeg  -27.6042 -7.49354 -34.2803
RightLeg  50.9953 -0.0714547 -0.50493
RightFoot  24.244 -2.43905 8.16647
RightToes  -5.28226e-011 1.30204e-014 -6.03759e-014
Spine  31.6092 2.21501 6.65579
Spine1  -1.14597 6.27615 -14.1858
HEad  -24.6295 -17.3834 4.27026
LeftShoulder1  0.709236 0.811739 -19.8287
LeftArm  -19.7475 -33.3548 -33.6948
LeftForeArm  -28.1817 -6.89318 -10.8618
LeftHand  0.173448 6.1332 27.0667
RightShoulder  2.47378 3.90331 27.374
RightArm  -18.9598 -50.5018 27.3317
RightForeArm  -38.6565 35.4368 9.68309
RightHand  -0.824283 -0.827556 -20.8628
LeftUpLeg  -24.0234 -0.954839 27.3918
LeftLeg  57.7968 -0.408576 -0.195035
LeftFoot  -24.7734 -3.60551 -31.1417
LeftToes  -2.75829e-010 5.07641e-011 -5.51782e-011
200
root  16.1092 31.2034 0.543439 19.0559 -88.7853 -28.687
RightUpLeg  -29.0494 -4.745 -32.4221
RightLeg  54.9603 -2.18971 -3.82076
RightFoot  15.4406 -3.40357 14.9424
RightToes  -5.28226e-011 1.30204e-014 -6.03759e-014
Spine  34.5594 3.15185 3.26138
Spine1  -1.10129 5.69458 -9.33788
HEad  -25.0914 -11.132 0.533097
LeftShoulder1  0.655872 0.708455 -16.8258
LeftArm  -26.9602 -12.8425 -36.4885
LeftForeArm  -41.6913 -36.1666 -10.3979
LeftHand  0.0751639 5.67276 28.6491
RightShoulder  1.62913 2.26836 21.8657
RightArm  -14.2212 -37.084 24.1094
RightForeArm  -41.9426 24.481 6.88194
RightHand  -0.853646 -1.26359 -23.7395
LeftUpLeg  -21.002 5.08225 31.3764
LeftLeg  62.2346 -2.67016 -4.89762
LeftFoot  -27.1092 -4.41065 -32.2358
LeftToes  -2.75829e-010 5.07641e-011 -5.51782e-011
201
root  16.0273 29.984 -0.376701 139.936 -82.5655 -151.565
RightUpLeg  -31.9951 0.182692 -28.9029
RightLeg  59.4813 -4.00661 -7.74542
RightFoot  2.81808 -2.92235 23.3366
RightToes  -5.28226e-011 1.30204e-014 -6.03759e-014
Spine  36.8229 3.62649 -6.25677
Spine1  -4.28633 1.37267 1.5366
HEad  -23.6423 6.94606 -5.58505
LeftShoulder1  0.814111 0.00895846 -16.3394
LeftArm  -36.8466 20.4248 -31.7738
LeftForeArm  -36.3955 -62.0375 -23.2883
LeftHand  0.447698 7.2868 27.3195
RightShoulder  0.852633 0.243646 16.2471
RightArm  -25.8996 -19.5475 29.9438
RightForeArm  -33.4161 26.7345 7.28844
RightHand  -0.990924 -1.10251 -26.5366
LeftUpLeg  -15.8519 11.7271 38.5318
LeftLeg  65.6212 -4.23391 -9.40016
LeftFoot  -28.4126 -4.79749 -32.2883
LeftToes  -2.75829e-010 5.07641e-011 -5.51782e-011
